# xmcd
# 
# Track frame offsets:
#     150
#     21032
#     38135
#     51802
#     74702
#     97888
#     126263
#     145060
#     171616
# 
# Disc length: 2515
# 
# Revision: 0
# Processed by: cddbd v1.5.2PL0 Copyright (c) Steve Scherf et al.
# Submitted via: fre:ac v1.0.27
# 
DISCID=8009d109
DTITLE=Sweet Felicia and The Tradies - Sweet Felicia and The Tradies Live at the Bluestone Blues Festival
DYEAR=2017
DGENRE=Blues
TTITLE0=Mailman Blues
TTITLE1=I Don't Believe
TTITLE2=My Kinda Baby
TTITLE3=Kansas City
TTITLE4=No More
TTITLE5=Come Back Baby
TTITLE6=Dynamite
TTITLE7=Big Strong Woman
TTITLE8=Somthin' Bad
EXTD=
EXTT0=
EXTT1=
EXTT2=
EXTT3=
EXTT4=
EXTT5=
EXTT6=
EXTT7=
EXTT8=
PLAYORDER=
